<svg width="84" height="88" viewBox="0 0 84 88" fill="none" xmlns="http://www.w3.org/2000/svg">
<g filter="url(#filter0_dddd_1086_1277)">
<path d="M44.4902 30.0523C50.495 30.0523 51.2048 30.0721 53.5809 30.1804C55.7698 30.279 56.9628 30.6438 57.7616 30.9594C58.8066 31.3636 59.5561 31.8565 60.3449 32.6453C61.1337 33.4341 61.6166 34.1836 62.0308 35.2286C62.3364 36.0174 62.7012 37.2104 62.8098 39.4093C62.9181 41.7855 62.9379 42.4953 62.9379 48.5C62.9379 54.5045 62.9181 55.2143 62.8098 57.5907C62.711 59.7796 62.3462 60.9726 62.0308 61.7711C61.6266 62.8162 61.1337 63.5656 60.3449 64.3544C59.5561 65.1432 58.8066 65.6264 57.7616 66.0406C56.9728 66.3462 55.7796 66.711 53.5809 66.8193C51.2048 66.9279 50.495 66.9474 44.4902 66.9474C38.4857 66.9474 37.7757 66.9279 35.3995 66.8193C33.2106 66.7208 32.0177 66.356 31.2191 66.0406C30.1738 65.6361 29.4246 65.1432 28.6358 64.3544C27.847 63.5656 27.3639 62.8162 26.9497 61.7711C26.644 60.9823 26.2792 59.7894 26.1709 57.5907C26.0623 55.2143 26.0425 54.5045 26.0425 48.5C26.0425 42.4953 26.0623 41.7855 26.1709 39.4093C26.2694 37.2204 26.6342 36.0272 26.9497 35.2286C27.3541 34.1836 27.847 33.4341 28.6358 32.6453C29.4246 31.8565 30.1738 31.3734 31.2191 30.9594C32.0079 30.6538 33.2009 30.289 35.3995 30.1804C37.7757 30.0721 38.4857 30.0523 44.4902 30.0523ZM44.4902 26C38.3772 26 37.618 26.0296 35.2122 26.1379C32.8162 26.2465 31.1795 26.6308 29.7498 27.1832C28.271 27.7549 27.0189 28.5241 25.7665 29.7762C24.5244 31.0284 23.7551 32.2805 23.1832 33.7596C22.6311 35.1892 22.2467 36.826 22.1382 39.222C22.0296 41.6177 22 42.387 22 48.49C22 54.603 22.0296 55.3622 22.1382 57.768C22.2467 60.1639 22.6311 61.8007 23.1832 63.2304C23.7551 64.7094 24.5244 65.9616 25.7765 67.2137C27.0286 68.4659 28.2808 69.2351 29.7598 69.8068C31.1895 70.3591 32.8263 70.7435 35.222 70.8521C37.618 70.9604 38.387 70.99 44.5 70.99C50.6133 70.99 51.3725 70.9604 53.7783 70.8521C56.174 70.7435 57.8107 70.3591 59.2404 69.8068C60.7195 69.2351 61.9716 68.4659 63.2238 67.2137C64.4759 65.9616 65.2451 64.7094 65.8171 63.2304C66.3692 61.8007 66.7535 60.1639 66.8621 57.768C66.9707 55.3723 67 54.603 67 48.49C67 42.3769 66.9707 41.6177 66.8621 39.212C66.7535 36.816 66.3692 35.1795 65.8171 33.7498C65.2451 32.2708 64.4759 31.0186 63.2238 29.7665C61.9716 28.5141 60.7195 27.7451 59.2404 27.1732C57.8107 26.6211 56.174 26.2364 53.7783 26.1281C51.3723 26.0296 50.6033 26 44.4902 26Z" fill="url(#paint0_linear_1086_1277)"/>
<path d="M44.4902 30.0523C50.495 30.0523 51.2048 30.0721 53.5809 30.1804C55.7698 30.279 56.9628 30.6438 57.7616 30.9594C58.8066 31.3636 59.5561 31.8565 60.3449 32.6453C61.1337 33.4341 61.6166 34.1836 62.0308 35.2286C62.3364 36.0174 62.7012 37.2104 62.8098 39.4093C62.9181 41.7855 62.9379 42.4953 62.9379 48.5C62.9379 54.5045 62.9181 55.2143 62.8098 57.5907C62.711 59.7796 62.3462 60.9726 62.0308 61.7711C61.6266 62.8162 61.1337 63.5656 60.3449 64.3544C59.5561 65.1432 58.8066 65.6264 57.7616 66.0406C56.9728 66.3462 55.7796 66.711 53.5809 66.8193C51.2048 66.9279 50.495 66.9474 44.4902 66.9474C38.4857 66.9474 37.7757 66.9279 35.3995 66.8193C33.2106 66.7208 32.0177 66.356 31.2191 66.0406C30.1738 65.6361 29.4246 65.1432 28.6358 64.3544C27.847 63.5656 27.3639 62.8162 26.9497 61.7711C26.644 60.9823 26.2792 59.7894 26.1709 57.5907C26.0623 55.2143 26.0425 54.5045 26.0425 48.5C26.0425 42.4953 26.0623 41.7855 26.1709 39.4093C26.2694 37.2204 26.6342 36.0272 26.9497 35.2286C27.3541 34.1836 27.847 33.4341 28.6358 32.6453C29.4246 31.8565 30.1738 31.3734 31.2191 30.9594C32.0079 30.6538 33.2009 30.289 35.3995 30.1804C37.7757 30.0721 38.4857 30.0523 44.4902 30.0523ZM44.4902 26C38.3772 26 37.618 26.0296 35.2122 26.1379C32.8162 26.2465 31.1795 26.6308 29.7498 27.1832C28.271 27.7549 27.0189 28.5241 25.7665 29.7762C24.5244 31.0284 23.7551 32.2805 23.1832 33.7596C22.6311 35.1892 22.2467 36.826 22.1382 39.222C22.0296 41.6177 22 42.387 22 48.49C22 54.603 22.0296 55.3622 22.1382 57.768C22.2467 60.1639 22.6311 61.8007 23.1832 63.2304C23.7551 64.7094 24.5244 65.9616 25.7765 67.2137C27.0286 68.4659 28.2808 69.2351 29.7598 69.8068C31.1895 70.3591 32.8263 70.7435 35.222 70.8521C37.618 70.9604 38.387 70.99 44.5 70.99C50.6133 70.99 51.3725 70.9604 53.7783 70.8521C56.174 70.7435 57.8107 70.3591 59.2404 69.8068C60.7195 69.2351 61.9716 68.4659 63.2238 67.2137C64.4759 65.9616 65.2451 64.7094 65.8171 63.2304C66.3692 61.8007 66.7535 60.1639 66.8621 57.768C66.9707 55.3723 67 54.603 67 48.49C67 42.3769 66.9707 41.6177 66.8621 39.212C66.7535 36.816 66.3692 35.1795 65.8171 33.7498C65.2451 32.2708 64.4759 31.0186 63.2238 29.7665C61.9716 28.5141 60.7195 27.7451 59.2404 27.1732C57.8107 26.6211 56.174 26.2364 53.7783 26.1281C51.3723 26.0296 50.6033 26 44.4902 26Z" fill="url(#paint1_linear_1086_1277)"/>
<path d="M44.4902 36.9434C38.1109 36.9434 32.9443 42.1099 32.9443 48.489C32.9443 54.8683 38.1209 60.0446 44.5 60.0446C50.8793 60.0446 56.0559 54.8781 56.0559 48.489C56.0458 42.1099 50.8695 36.9434 44.4902 36.9434ZM44.4902 55.9923C40.3491 55.9923 36.9969 52.6401 36.9969 48.499C36.9969 44.3577 40.3491 41.0054 44.4902 41.0054C48.6313 41.0054 51.9838 44.3577 51.9838 48.499C51.9935 52.6303 48.6313 55.9923 44.4902 55.9923Z" fill="url(#paint2_linear_1086_1277)"/>
<path d="M44.4902 36.9434C38.1109 36.9434 32.9443 42.1099 32.9443 48.489C32.9443 54.8683 38.1209 60.0446 44.5 60.0446C50.8793 60.0446 56.0559 54.8781 56.0559 48.489C56.0458 42.1099 50.8695 36.9434 44.4902 36.9434ZM44.4902 55.9923C40.3491 55.9923 36.9969 52.6401 36.9969 48.499C36.9969 44.3577 40.3491 41.0054 44.4902 41.0054C48.6313 41.0054 51.9838 44.3577 51.9838 48.499C51.9935 52.6303 48.6313 55.9923 44.4902 55.9923Z" fill="url(#paint3_linear_1086_1277)"/>
<path d="M59.2001 36.4892C59.2001 37.978 57.9873 39.1908 56.4985 39.1908C55.0097 39.1908 53.7969 37.978 53.7969 36.4892C53.7969 35.0004 55.0097 33.7876 56.4985 33.7876C57.9873 33.7876 59.2001 34.9903 59.2001 36.4892Z" fill="url(#paint4_linear_1086_1277)"/>
<path d="M59.2001 36.4892C59.2001 37.978 57.9873 39.1908 56.4985 39.1908C55.0097 39.1908 53.7969 37.978 53.7969 36.4892C53.7969 35.0004 55.0097 33.7876 56.4985 33.7876C57.9873 33.7876 59.2001 34.9903 59.2001 36.4892Z" fill="url(#paint5_linear_1086_1277)"/>
</g>
<defs>
<filter id="filter0_dddd_1086_1277" x="0" y="0" width="84" height="87.99" filterUnits="userSpaceOnUse" color-interpolation-filters="sRGB">
<feFlood flood-opacity="0" result="BackgroundImageFix"/>
<feColorMatrix in="SourceAlpha" type="matrix" values="0 0 0 0 0 0 0 0 0 0 0 0 0 0 0 0 0 0 127 0" result="hardAlpha"/>
<feOffset dx="-9" dy="-13"/>
<feGaussianBlur stdDeviation="6.5"/>
<feComposite in2="hardAlpha" operator="out"/>
<feColorMatrix type="matrix" values="0 0 0 0 1 0 0 0 0 1 0 0 0 0 1 0 0 0 1 0"/>
<feBlend mode="normal" in2="BackgroundImageFix" result="effect1_dropShadow_1086_1277"/>
<feColorMatrix in="SourceAlpha" type="matrix" values="0 0 0 0 0 0 0 0 0 0 0 0 0 0 0 0 0 0 127 0" result="hardAlpha"/>
<feOffset dx="4" dy="4"/>
<feGaussianBlur stdDeviation="6.5"/>
<feComposite in2="hardAlpha" operator="out"/>
<feColorMatrix type="matrix" values="0 0 0 0 0 0 0 0 0 0 0 0 0 0 0 0 0 0 0.25 0"/>
<feBlend mode="normal" in2="effect1_dropShadow_1086_1277" result="effect2_dropShadow_1086_1277"/>
<feColorMatrix in="SourceAlpha" type="matrix" values="0 0 0 0 0 0 0 0 0 0 0 0 0 0 0 0 0 0 127 0" result="hardAlpha"/>
<feOffset dx="-5" dy="4"/>
<feGaussianBlur stdDeviation="6.5"/>
<feComposite in2="hardAlpha" operator="out"/>
<feColorMatrix type="matrix" values="0 0 0 0 1 0 0 0 0 1 0 0 0 0 1 0 0 0 1 0"/>
<feBlend mode="normal" in2="effect2_dropShadow_1086_1277" result="effect3_dropShadow_1086_1277"/>
<feColorMatrix in="SourceAlpha" type="matrix" values="0 0 0 0 0 0 0 0 0 0 0 0 0 0 0 0 0 0 127 0" result="hardAlpha"/>
<feOffset dy="4"/>
<feGaussianBlur stdDeviation="5"/>
<feComposite in2="hardAlpha" operator="out"/>
<feColorMatrix type="matrix" values="0 0 0 0 0 0 0 0 0 0 0 0 0 0 0 0 0 0 0.25 0"/>
<feBlend mode="normal" in2="effect3_dropShadow_1086_1277" result="effect4_dropShadow_1086_1277"/>
<feBlend mode="normal" in="SourceGraphic" in2="effect4_dropShadow_1086_1277" result="shape"/>
</filter>
<linearGradient id="paint0_linear_1086_1277" x1="22" y1="48.495" x2="67" y2="48.495" gradientUnits="userSpaceOnUse">
<stop stop-color="white"/>
<stop offset="1" stop-color="white"/>
</linearGradient>
<linearGradient id="paint1_linear_1086_1277" x1="22" y1="48.495" x2="67" y2="48.495" gradientUnits="userSpaceOnUse">
<stop stop-color="#0736C8"/>
<stop offset="1" stop-color="#4131FF"/>
</linearGradient>
<linearGradient id="paint2_linear_1086_1277" x1="32.9443" y1="48.494" x2="56.0559" y2="48.494" gradientUnits="userSpaceOnUse">
<stop stop-color="white"/>
<stop offset="1" stop-color="white"/>
</linearGradient>
<linearGradient id="paint3_linear_1086_1277" x1="32.9443" y1="48.494" x2="56.0559" y2="48.494" gradientUnits="userSpaceOnUse">
<stop stop-color="#0736C8"/>
<stop offset="1" stop-color="#4131FF"/>
</linearGradient>
<linearGradient id="paint4_linear_1086_1277" x1="53.7969" y1="36.4892" x2="59.2001" y2="36.4892" gradientUnits="userSpaceOnUse">
<stop stop-color="#F2F2F2"/>
<stop offset="1" stop-color="white"/>
</linearGradient>
<linearGradient id="paint5_linear_1086_1277" x1="53.7969" y1="36.4892" x2="59.2001" y2="36.4892" gradientUnits="userSpaceOnUse">
<stop stop-color="#0736C8"/>
<stop offset="1" stop-color="#4131FF"/>
</linearGradient>
</defs>
</svg>
