<svg width="491" height="119" viewBox="0 0 491 119" fill="none" xmlns="http://www.w3.org/2000/svg">
<path d="M0.963672 2.55H50.3137C61.5137 2.55 70.3637 5.35 76.8637 10.95C83.3637 16.45 86.6137 24.9 86.6137 36.3C86.6137 40.7 86.0137 44.85 84.8137 48.75C83.6137 52.55 81.9137 55.8 79.7137 58.5C76.0137 63 71.7137 65.15 66.8137 64.95L66.0637 66.9C67.6637 68.2 68.8637 69.55 69.6637 70.95C70.4637 72.25 71.4137 74.3 72.5137 77.1L89.1637 117H66.3637L48.2137 71.1H22.5637V117H0.963672V2.55ZM47.3137 52.35C53.1137 52.35 57.5137 51.05 60.5137 48.45C63.6137 45.85 65.1637 42.05 65.1637 37.05C65.1637 32.15 63.6137 28.4 60.5137 25.8C57.4137 23.2 53.0137 21.9 47.3137 21.9H22.5637V52.35H47.3137ZM127.632 118.65C119.432 118.65 112.782 116.5 107.682 112.2C102.582 107.8 100.032 101.7 100.032 93.9C100.032 85.5 103.232 79.1 109.632 74.7C114.232 71.5 120.782 69.1 129.282 67.5L154.332 62.85C154.332 57.85 152.982 53.9 150.282 51C147.782 48.3 144.032 46.95 139.032 46.95C135.132 46.95 131.682 48.1 128.682 50.4C125.782 52.7 123.982 55.8 123.282 59.7H103.182C104.582 50.4 108.682 43.3 115.482 38.4C122.282 33.5 130.182 31.05 139.182 31.05C144.282 31.05 149.032 31.8 153.432 33.3C157.832 34.7 161.582 36.8 164.682 39.6C167.782 42.3 170.032 45.45 171.432 49.05C172.832 52.65 173.682 56.25 173.982 59.85C174.382 63.45 174.582 67.9 174.582 73.2V117H154.332V114.6C154.332 112 154.982 109.35 156.282 106.65L154.032 105.45C152.232 109.15 149.732 112.05 146.532 114.15C142.032 117.15 135.732 118.65 127.632 118.65ZM132.582 102.75C136.282 102.75 139.882 101.95 143.382 100.35C146.582 98.85 149.132 96.65 151.032 93.75C151.932 92.25 152.632 90.8 153.132 89.4C153.632 87.9 154.182 85.85 154.782 83.25C154.982 82.05 155.282 81.2 155.682 80.7C156.182 80.1 156.882 79.75 157.782 79.65L157.332 77.25C149.332 78.85 144.182 79.9 141.882 80.4L134.682 81.75C129.282 82.75 125.382 84.35 122.982 86.55C121.182 88.35 120.282 90.55 120.282 93.15C120.282 96.25 121.382 98.65 123.582 100.35C125.882 101.95 128.882 102.75 132.582 102.75ZM191.955 117V32.85H212.205V117H191.955ZM202.155 23.55C198.655 23.55 195.705 22.5 193.305 20.4C190.905 18.3 189.705 15.5 189.705 12C189.705 8.69999 190.905 5.94999 193.305 3.74999C195.705 1.55 198.655 0.449998 202.155 0.449998C205.555 0.449998 208.455 1.55 210.855 3.74999C213.355 5.94999 214.605 8.69999 214.605 12C214.605 15.4 213.405 18.2 211.005 20.4C208.605 22.5 205.655 23.55 202.155 23.55ZM267.077 118.65C256.677 118.65 247.677 116.15 240.077 111.15C232.477 106.15 228.027 98.65 226.727 88.65H246.677C247.977 93.15 250.377 96.65 253.877 99.15C257.377 101.55 261.727 102.75 266.927 102.75C271.327 102.75 274.877 101.9 277.577 100.2C280.377 98.5 281.777 96.1 281.777 93C281.777 89.6 280.127 87.15 276.827 85.65C273.627 84.15 268.627 82.75 261.827 81.45C255.327 80.15 249.927 78.75 245.627 77.25C241.327 75.75 237.677 73.35 234.677 70.05C231.677 66.65 230.177 62.05 230.177 56.25C230.177 47.95 233.227 41.7 239.327 37.5C245.527 33.2 253.327 31.05 262.727 31.05C272.627 31.05 280.827 33.55 287.327 38.55C293.927 43.55 297.977 50.6 299.477 59.7H280.427C279.327 55.3 277.177 52.1 273.977 50.1C270.777 48 266.977 46.95 262.577 46.95C258.577 46.95 255.377 47.75 252.977 49.35C250.677 50.85 249.527 52.9 249.527 55.5C249.527 58.6 251.077 60.8 254.177 62.1C257.277 63.4 262.177 64.7 268.877 66C275.777 67.3 281.377 68.7 285.677 70.2C290.077 71.6 293.827 74 296.927 77.4C300.127 80.8 301.727 85.5 301.727 91.5C301.727 99.8 298.627 106.4 292.427 111.3C286.327 116.2 277.877 118.65 267.077 118.65ZM356.502 118.65C348.002 118.65 340.502 116.8 334.002 113.1C327.502 109.4 322.452 104.3 318.852 97.8C315.352 91.2 313.602 83.75 313.602 75.45C313.602 67.75 315.152 60.55 318.252 53.85C321.452 47.05 326.202 41.55 332.502 37.35C338.902 33.15 346.702 31.05 355.902 31.05C363.502 31.05 370.502 32.65 376.902 35.85C383.302 38.95 388.452 43.8 392.352 50.4C396.252 56.9 398.202 65 398.202 74.7V79.05H344.802C344.202 79.05 342.552 79.05 339.852 79.05C337.152 79.05 335.002 78.9 333.402 78.6L332.802 80.85C333.602 81.05 334.202 81.45 334.602 82.05C335.102 82.65 335.502 83.5 335.802 84.6C336.602 86.7 337.252 88.15 337.752 88.95C339.752 92.85 342.402 95.9 345.702 98.1C349.102 100.2 352.952 101.25 357.252 101.25C361.852 101.25 365.802 100.1 369.102 97.8C372.402 95.4 374.752 92.35 376.152 88.65H396.852C394.152 97.55 389.402 104.8 382.602 110.4C375.802 115.9 367.102 118.65 356.502 118.65ZM335.202 66.15C336.702 65.25 338.052 64.65 339.252 64.35C340.452 64.05 341.802 63.9 343.302 63.9H369.402C371.002 63.9 372.402 64.05 373.602 64.35C374.902 64.65 376.352 65.25 377.952 66.15L379.152 64.05C378.452 63.65 377.952 63.3 377.652 63C377.352 62.6 377.102 62.2 376.902 61.8C376.802 61.4 376.752 61.15 376.752 61.05C376.352 59.35 375.552 57.7 374.352 56.1C372.452 53.2 369.952 51 366.852 49.5C363.752 47.9 360.302 47.1 356.502 47.1C352.702 47.1 349.252 47.85 346.152 49.35C343.152 50.85 340.702 53.1 338.802 56.1C337.502 57.7 336.652 59.35 336.252 61.05C336.252 61.15 336.152 61.45 335.952 61.95C335.752 62.35 335.502 62.75 335.202 63.15C334.902 63.45 334.452 63.75 333.852 64.05L335.202 66.15ZM446.9 118.65C439.6 118.65 433.15 116.8 427.55 113.1C421.95 109.4 417.6 104.25 414.5 97.65C411.4 90.95 409.85 83.35 409.85 74.85C409.85 66.35 411.4 58.8 414.5 52.2C417.6 45.5 421.95 40.3 427.55 36.6C433.15 32.9 439.6 31.05 446.9 31.05C452.3 31.05 456.85 32.05 460.55 34.05C464.25 35.95 467.7 39.25 470.9 43.95L473 42.45C472.2 41.35 471.6 40.3 471.2 39.3C470.9 38.3 470.75 37.05 470.75 35.55V2.55H491V117H470.75V114.3C470.75 112.8 470.9 111.55 471.2 110.55C471.6 109.45 472.2 108.35 473 107.25L470.9 105.9C467.7 110.6 464.25 113.9 460.55 115.8C456.85 117.7 452.3 118.65 446.9 118.65ZM451.55 101.25C457.95 101.25 463.15 98.8 467.15 93.9C471.25 89 473.3 82.65 473.3 74.85C473.3 67.05 471.25 60.7 467.15 55.8C463.15 50.9 457.95 48.45 451.55 48.45C445.15 48.45 440 50.95 436.1 55.95C432.2 60.85 430.25 67.15 430.25 74.85C430.25 82.55 432.2 88.9 436.1 93.9C440 98.8 445.15 101.25 451.55 101.25Z" fill="black"/>
<path d="M0.963672 2.55H50.3137C61.5137 2.55 70.3637 5.35 76.8637 10.95C83.3637 16.45 86.6137 24.9 86.6137 36.3C86.6137 40.7 86.0137 44.85 84.8137 48.75C83.6137 52.55 81.9137 55.8 79.7137 58.5C76.0137 63 71.7137 65.15 66.8137 64.95L66.0637 66.9C67.6637 68.2 68.8637 69.55 69.6637 70.95C70.4637 72.25 71.4137 74.3 72.5137 77.1L89.1637 117H66.3637L48.2137 71.1H22.5637V117H0.963672V2.55ZM47.3137 52.35C53.1137 52.35 57.5137 51.05 60.5137 48.45C63.6137 45.85 65.1637 42.05 65.1637 37.05C65.1637 32.15 63.6137 28.4 60.5137 25.8C57.4137 23.2 53.0137 21.9 47.3137 21.9H22.5637V52.35H47.3137ZM127.632 118.65C119.432 118.65 112.782 116.5 107.682 112.2C102.582 107.8 100.032 101.7 100.032 93.9C100.032 85.5 103.232 79.1 109.632 74.7C114.232 71.5 120.782 69.1 129.282 67.5L154.332 62.85C154.332 57.85 152.982 53.9 150.282 51C147.782 48.3 144.032 46.95 139.032 46.95C135.132 46.95 131.682 48.1 128.682 50.4C125.782 52.7 123.982 55.8 123.282 59.7H103.182C104.582 50.4 108.682 43.3 115.482 38.4C122.282 33.5 130.182 31.05 139.182 31.05C144.282 31.05 149.032 31.8 153.432 33.3C157.832 34.7 161.582 36.8 164.682 39.6C167.782 42.3 170.032 45.45 171.432 49.05C172.832 52.65 173.682 56.25 173.982 59.85C174.382 63.45 174.582 67.9 174.582 73.2V117H154.332V114.6C154.332 112 154.982 109.35 156.282 106.65L154.032 105.45C152.232 109.15 149.732 112.05 146.532 114.15C142.032 117.15 135.732 118.65 127.632 118.65ZM132.582 102.75C136.282 102.75 139.882 101.95 143.382 100.35C146.582 98.85 149.132 96.65 151.032 93.75C151.932 92.25 152.632 90.8 153.132 89.4C153.632 87.9 154.182 85.85 154.782 83.25C154.982 82.05 155.282 81.2 155.682 80.7C156.182 80.1 156.882 79.75 157.782 79.65L157.332 77.25C149.332 78.85 144.182 79.9 141.882 80.4L134.682 81.75C129.282 82.75 125.382 84.35 122.982 86.55C121.182 88.35 120.282 90.55 120.282 93.15C120.282 96.25 121.382 98.65 123.582 100.35C125.882 101.95 128.882 102.75 132.582 102.75ZM191.955 117V32.85H212.205V117H191.955ZM202.155 23.55C198.655 23.55 195.705 22.5 193.305 20.4C190.905 18.3 189.705 15.5 189.705 12C189.705 8.69999 190.905 5.94999 193.305 3.74999C195.705 1.55 198.655 0.449998 202.155 0.449998C205.555 0.449998 208.455 1.55 210.855 3.74999C213.355 5.94999 214.605 8.69999 214.605 12C214.605 15.4 213.405 18.2 211.005 20.4C208.605 22.5 205.655 23.55 202.155 23.55ZM267.077 118.65C256.677 118.65 247.677 116.15 240.077 111.15C232.477 106.15 228.027 98.65 226.727 88.65H246.677C247.977 93.15 250.377 96.65 253.877 99.15C257.377 101.55 261.727 102.75 266.927 102.75C271.327 102.75 274.877 101.9 277.577 100.2C280.377 98.5 281.777 96.1 281.777 93C281.777 89.6 280.127 87.15 276.827 85.65C273.627 84.15 268.627 82.75 261.827 81.45C255.327 80.15 249.927 78.75 245.627 77.25C241.327 75.75 237.677 73.35 234.677 70.05C231.677 66.65 230.177 62.05 230.177 56.25C230.177 47.95 233.227 41.7 239.327 37.5C245.527 33.2 253.327 31.05 262.727 31.05C272.627 31.05 280.827 33.55 287.327 38.55C293.927 43.55 297.977 50.6 299.477 59.7H280.427C279.327 55.3 277.177 52.1 273.977 50.1C270.777 48 266.977 46.95 262.577 46.95C258.577 46.95 255.377 47.75 252.977 49.35C250.677 50.85 249.527 52.9 249.527 55.5C249.527 58.6 251.077 60.8 254.177 62.1C257.277 63.4 262.177 64.7 268.877 66C275.777 67.3 281.377 68.7 285.677 70.2C290.077 71.6 293.827 74 296.927 77.4C300.127 80.8 301.727 85.5 301.727 91.5C301.727 99.8 298.627 106.4 292.427 111.3C286.327 116.2 277.877 118.65 267.077 118.65ZM356.502 118.65C348.002 118.65 340.502 116.8 334.002 113.1C327.502 109.4 322.452 104.3 318.852 97.8C315.352 91.2 313.602 83.75 313.602 75.45C313.602 67.75 315.152 60.55 318.252 53.85C321.452 47.05 326.202 41.55 332.502 37.35C338.902 33.15 346.702 31.05 355.902 31.05C363.502 31.05 370.502 32.65 376.902 35.85C383.302 38.95 388.452 43.8 392.352 50.4C396.252 56.9 398.202 65 398.202 74.7V79.05H344.802C344.202 79.05 342.552 79.05 339.852 79.05C337.152 79.05 335.002 78.9 333.402 78.6L332.802 80.85C333.602 81.05 334.202 81.45 334.602 82.05C335.102 82.65 335.502 83.5 335.802 84.6C336.602 86.7 337.252 88.15 337.752 88.95C339.752 92.85 342.402 95.9 345.702 98.1C349.102 100.2 352.952 101.25 357.252 101.25C361.852 101.25 365.802 100.1 369.102 97.8C372.402 95.4 374.752 92.35 376.152 88.65H396.852C394.152 97.55 389.402 104.8 382.602 110.4C375.802 115.9 367.102 118.65 356.502 118.65ZM335.202 66.15C336.702 65.25 338.052 64.65 339.252 64.35C340.452 64.05 341.802 63.9 343.302 63.9H369.402C371.002 63.9 372.402 64.05 373.602 64.35C374.902 64.65 376.352 65.25 377.952 66.15L379.152 64.05C378.452 63.65 377.952 63.3 377.652 63C377.352 62.6 377.102 62.2 376.902 61.8C376.802 61.4 376.752 61.15 376.752 61.05C376.352 59.35 375.552 57.7 374.352 56.1C372.452 53.2 369.952 51 366.852 49.5C363.752 47.9 360.302 47.1 356.502 47.1C352.702 47.1 349.252 47.85 346.152 49.35C343.152 50.85 340.702 53.1 338.802 56.1C337.502 57.7 336.652 59.35 336.252 61.05C336.252 61.15 336.152 61.45 335.952 61.95C335.752 62.35 335.502 62.75 335.202 63.15C334.902 63.45 334.452 63.75 333.852 64.05L335.202 66.15ZM446.9 118.65C439.6 118.65 433.15 116.8 427.55 113.1C421.95 109.4 417.6 104.25 414.5 97.65C411.4 90.95 409.85 83.35 409.85 74.85C409.85 66.35 411.4 58.8 414.5 52.2C417.6 45.5 421.95 40.3 427.55 36.6C433.15 32.9 439.6 31.05 446.9 31.05C452.3 31.05 456.85 32.05 460.55 34.05C464.25 35.95 467.7 39.25 470.9 43.95L473 42.45C472.2 41.35 471.6 40.3 471.2 39.3C470.9 38.3 470.75 37.05 470.75 35.55V2.55H491V117H470.75V114.3C470.75 112.8 470.9 111.55 471.2 110.55C471.6 109.45 472.2 108.35 473 107.25L470.9 105.9C467.7 110.6 464.25 113.9 460.55 115.8C456.85 117.7 452.3 118.65 446.9 118.65ZM451.55 101.25C457.95 101.25 463.15 98.8 467.15 93.9C471.25 89 473.3 82.65 473.3 74.85C473.3 67.05 471.25 60.7 467.15 55.8C463.15 50.9 457.95 48.45 451.55 48.45C445.15 48.45 440 50.95 436.1 55.95C432.2 60.85 430.25 67.15 430.25 74.85C430.25 82.55 432.2 88.9 436.1 93.9C440 98.8 445.15 101.25 451.55 101.25Z" fill="url(#paint0_linear_1053_1233)"/>
<path d="M0.963672 2.55H50.3137C61.5137 2.55 70.3637 5.35 76.8637 10.95C83.3637 16.45 86.6137 24.9 86.6137 36.3C86.6137 40.7 86.0137 44.85 84.8137 48.75C83.6137 52.55 81.9137 55.8 79.7137 58.5C76.0137 63 71.7137 65.15 66.8137 64.95L66.0637 66.9C67.6637 68.2 68.8637 69.55 69.6637 70.95C70.4637 72.25 71.4137 74.3 72.5137 77.1L89.1637 117H66.3637L48.2137 71.1H22.5637V117H0.963672V2.55ZM47.3137 52.35C53.1137 52.35 57.5137 51.05 60.5137 48.45C63.6137 45.85 65.1637 42.05 65.1637 37.05C65.1637 32.15 63.6137 28.4 60.5137 25.8C57.4137 23.2 53.0137 21.9 47.3137 21.9H22.5637V52.35H47.3137ZM127.632 118.65C119.432 118.65 112.782 116.5 107.682 112.2C102.582 107.8 100.032 101.7 100.032 93.9C100.032 85.5 103.232 79.1 109.632 74.7C114.232 71.5 120.782 69.1 129.282 67.5L154.332 62.85C154.332 57.85 152.982 53.9 150.282 51C147.782 48.3 144.032 46.95 139.032 46.95C135.132 46.95 131.682 48.1 128.682 50.4C125.782 52.7 123.982 55.8 123.282 59.7H103.182C104.582 50.4 108.682 43.3 115.482 38.4C122.282 33.5 130.182 31.05 139.182 31.05C144.282 31.05 149.032 31.8 153.432 33.3C157.832 34.7 161.582 36.8 164.682 39.6C167.782 42.3 170.032 45.45 171.432 49.05C172.832 52.65 173.682 56.25 173.982 59.85C174.382 63.45 174.582 67.9 174.582 73.2V117H154.332V114.6C154.332 112 154.982 109.35 156.282 106.65L154.032 105.45C152.232 109.15 149.732 112.05 146.532 114.15C142.032 117.15 135.732 118.65 127.632 118.65ZM132.582 102.75C136.282 102.75 139.882 101.95 143.382 100.35C146.582 98.85 149.132 96.65 151.032 93.75C151.932 92.25 152.632 90.8 153.132 89.4C153.632 87.9 154.182 85.85 154.782 83.25C154.982 82.05 155.282 81.2 155.682 80.7C156.182 80.1 156.882 79.75 157.782 79.65L157.332 77.25C149.332 78.85 144.182 79.9 141.882 80.4L134.682 81.75C129.282 82.75 125.382 84.35 122.982 86.55C121.182 88.35 120.282 90.55 120.282 93.15C120.282 96.25 121.382 98.65 123.582 100.35C125.882 101.95 128.882 102.75 132.582 102.75ZM191.955 117V32.85H212.205V117H191.955ZM202.155 23.55C198.655 23.55 195.705 22.5 193.305 20.4C190.905 18.3 189.705 15.5 189.705 12C189.705 8.69999 190.905 5.94999 193.305 3.74999C195.705 1.55 198.655 0.449998 202.155 0.449998C205.555 0.449998 208.455 1.55 210.855 3.74999C213.355 5.94999 214.605 8.69999 214.605 12C214.605 15.4 213.405 18.2 211.005 20.4C208.605 22.5 205.655 23.55 202.155 23.55ZM267.077 118.65C256.677 118.65 247.677 116.15 240.077 111.15C232.477 106.15 228.027 98.65 226.727 88.65H246.677C247.977 93.15 250.377 96.65 253.877 99.15C257.377 101.55 261.727 102.75 266.927 102.75C271.327 102.75 274.877 101.9 277.577 100.2C280.377 98.5 281.777 96.1 281.777 93C281.777 89.6 280.127 87.15 276.827 85.65C273.627 84.15 268.627 82.75 261.827 81.45C255.327 80.15 249.927 78.75 245.627 77.25C241.327 75.75 237.677 73.35 234.677 70.05C231.677 66.65 230.177 62.05 230.177 56.25C230.177 47.95 233.227 41.7 239.327 37.5C245.527 33.2 253.327 31.05 262.727 31.05C272.627 31.05 280.827 33.55 287.327 38.55C293.927 43.55 297.977 50.6 299.477 59.7H280.427C279.327 55.3 277.177 52.1 273.977 50.1C270.777 48 266.977 46.95 262.577 46.95C258.577 46.95 255.377 47.75 252.977 49.35C250.677 50.85 249.527 52.9 249.527 55.5C249.527 58.6 251.077 60.8 254.177 62.1C257.277 63.4 262.177 64.7 268.877 66C275.777 67.3 281.377 68.7 285.677 70.2C290.077 71.6 293.827 74 296.927 77.4C300.127 80.8 301.727 85.5 301.727 91.5C301.727 99.8 298.627 106.4 292.427 111.3C286.327 116.2 277.877 118.65 267.077 118.65ZM356.502 118.65C348.002 118.65 340.502 116.8 334.002 113.1C327.502 109.4 322.452 104.3 318.852 97.8C315.352 91.2 313.602 83.75 313.602 75.45C313.602 67.75 315.152 60.55 318.252 53.85C321.452 47.05 326.202 41.55 332.502 37.35C338.902 33.15 346.702 31.05 355.902 31.05C363.502 31.05 370.502 32.65 376.902 35.85C383.302 38.95 388.452 43.8 392.352 50.4C396.252 56.9 398.202 65 398.202 74.7V79.05H344.802C344.202 79.05 342.552 79.05 339.852 79.05C337.152 79.05 335.002 78.9 333.402 78.6L332.802 80.85C333.602 81.05 334.202 81.45 334.602 82.05C335.102 82.65 335.502 83.5 335.802 84.6C336.602 86.7 337.252 88.15 337.752 88.95C339.752 92.85 342.402 95.9 345.702 98.1C349.102 100.2 352.952 101.25 357.252 101.25C361.852 101.25 365.802 100.1 369.102 97.8C372.402 95.4 374.752 92.35 376.152 88.65H396.852C394.152 97.55 389.402 104.8 382.602 110.4C375.802 115.9 367.102 118.65 356.502 118.65ZM335.202 66.15C336.702 65.25 338.052 64.65 339.252 64.35C340.452 64.05 341.802 63.9 343.302 63.9H369.402C371.002 63.9 372.402 64.05 373.602 64.35C374.902 64.65 376.352 65.25 377.952 66.15L379.152 64.05C378.452 63.65 377.952 63.3 377.652 63C377.352 62.6 377.102 62.2 376.902 61.8C376.802 61.4 376.752 61.15 376.752 61.05C376.352 59.35 375.552 57.7 374.352 56.1C372.452 53.2 369.952 51 366.852 49.5C363.752 47.9 360.302 47.1 356.502 47.1C352.702 47.1 349.252 47.85 346.152 49.35C343.152 50.85 340.702 53.1 338.802 56.1C337.502 57.7 336.652 59.35 336.252 61.05C336.252 61.15 336.152 61.45 335.952 61.95C335.752 62.35 335.502 62.75 335.202 63.15C334.902 63.45 334.452 63.75 333.852 64.05L335.202 66.15ZM446.9 118.65C439.6 118.65 433.15 116.8 427.55 113.1C421.95 109.4 417.6 104.25 414.5 97.65C411.4 90.95 409.85 83.35 409.85 74.85C409.85 66.35 411.4 58.8 414.5 52.2C417.6 45.5 421.95 40.3 427.55 36.6C433.15 32.9 439.6 31.05 446.9 31.05C452.3 31.05 456.85 32.05 460.55 34.05C464.25 35.95 467.7 39.25 470.9 43.95L473 42.45C472.2 41.35 471.6 40.3 471.2 39.3C470.9 38.3 470.75 37.05 470.75 35.55V2.55H491V117H470.75V114.3C470.75 112.8 470.9 111.55 471.2 110.55C471.6 109.45 472.2 108.35 473 107.25L470.9 105.9C467.7 110.6 464.25 113.9 460.55 115.8C456.85 117.7 452.3 118.65 446.9 118.65ZM451.55 101.25C457.95 101.25 463.15 98.8 467.15 93.9C471.25 89 473.3 82.65 473.3 74.85C473.3 67.05 471.25 60.7 467.15 55.8C463.15 50.9 457.95 48.45 451.55 48.45C445.15 48.45 440 50.95 436.1 55.95C432.2 60.85 430.25 67.15 430.25 74.85C430.25 82.55 432.2 88.9 436.1 93.9C440 98.8 445.15 101.25 451.55 101.25Z" fill="url(#paint1_linear_1053_1233)"/>
<defs>
<linearGradient id="paint0_linear_1053_1233" x1="-20.5" y1="-29.28" x2="428.689" y2="257.873" gradientUnits="userSpaceOnUse">
<stop stop-color="#FF4646"/>
<stop offset="1" stop-color="#F822D5" stop-opacity="0.63"/>
</linearGradient>
<linearGradient id="paint1_linear_1053_1233" x1="482.269" y1="-77.1086" x2="155.666" y2="300.822" gradientUnits="userSpaceOnUse">
<stop stop-color="#A346FF"/>
<stop offset="0.294527" stop-color="#9441FE" stop-opacity="0"/>
<stop offset="0.703125" stop-color="#FFE601" stop-opacity="0"/>
<stop offset="0.979167" stop-color="#FFE600"/>
</linearGradient>
</defs>
</svg>
