<svg width="290" height="57" viewBox="0 0 290 57" fill="none" xmlns="http://www.w3.org/2000/svg">
<path d="M20.432 45.912C17.354 45.912 14.39 45.418 11.54 44.43C8.728 43.442 6.315 41.808 4.301 39.528C2.325 37.21 1.185 34.227 0.881 30.579H10.4C11.046 33.315 12.262 35.253 14.048 36.393C15.872 37.533 18 38.103 20.432 38.103C22.56 38.103 24.308 37.647 25.676 36.735C27.082 35.823 27.785 34.474 27.785 32.688C27.785 31.434 27.348 30.427 26.474 29.667C25.6 28.907 24.498 28.318 23.168 27.9C21.876 27.482 20.071 27.026 17.753 26.532C14.485 25.81 11.806 25.069 9.716 24.309C7.626 23.511 5.84 22.276 4.358 20.604C2.876 18.894 2.135 16.595 2.135 13.707C2.135 10.895 2.819 8.52 4.187 6.582C5.555 4.606 7.436 3.124 9.83 2.136C12.224 1.148 14.922 0.653997 17.924 0.653997C20.926 0.653997 23.7 1.186 26.246 2.25C28.83 3.276 30.977 4.853 32.687 6.981C34.397 9.071 35.48 11.655 35.936 14.733H26.474C25.942 12.719 24.897 11.18 23.339 10.116C21.819 9.014 19.938 8.463 17.696 8.463C15.834 8.463 14.295 8.843 13.079 9.603C11.901 10.363 11.312 11.465 11.312 12.909C11.312 14.049 11.711 14.961 12.509 15.645C13.345 16.329 14.371 16.88 15.587 17.298C16.841 17.678 18.608 18.134 20.888 18.666C24.232 19.388 26.987 20.167 29.153 21.003C31.319 21.801 33.181 23.112 34.739 24.936C36.297 26.722 37.076 29.154 37.076 32.232C37.076 35.006 36.411 37.419 35.081 39.471C33.751 41.523 31.832 43.119 29.324 44.259C26.854 45.361 23.89 45.912 20.432 45.912ZM52.4148 45C50.0208 45 48.1778 44.449 46.8858 43.347C45.5938 42.207 44.9478 40.516 44.9478 38.274V19.692H40.3878V12.852H44.9478V1.509H53.6118V12.852H59.4828V19.692H53.6118V35.481C53.6118 36.241 53.7638 36.849 54.0678 37.305C54.3718 37.723 54.9798 37.932 55.8918 37.932H59.4258V45H52.4148ZM73.9964 45.684C70.9184 45.684 68.3914 44.848 66.4154 43.176C64.4394 41.466 63.4514 39.091 63.4514 36.051C63.4514 32.783 64.7434 30.275 67.3274 28.527C68.9994 27.387 71.5074 26.513 74.8514 25.905L83.8004 24.252C83.7624 22.466 83.2874 21.098 82.3754 20.148C81.5394 19.236 80.2854 18.78 78.6134 18.78C77.2834 18.78 76.1244 19.198 75.1364 20.034C74.1484 20.832 73.5214 21.934 73.2554 23.34H64.6484C65.0284 20.87 65.9024 18.799 67.2704 17.127C68.6764 15.455 70.3674 14.22 72.3434 13.422C74.3574 12.586 76.4664 12.168 78.6704 12.168C80.6084 12.168 82.4324 12.434 84.1424 12.966C85.8524 13.498 87.3154 14.296 88.5314 15.36C89.7474 16.424 90.6214 17.659 91.1534 19.065C91.7234 20.471 92.0654 21.915 92.1794 23.397C92.3314 24.841 92.4074 26.722 92.4074 29.04V45H83.7434V44.316C83.7434 43.404 84.0094 42.397 84.5414 41.295L83.7434 40.839C83.1734 42.055 82.2994 43.1 81.1214 43.974C79.4114 45.114 77.0364 45.684 73.9964 45.684ZM76.3334 39.015C77.6634 39.015 78.9174 38.73 80.0954 38.16C81.1974 37.628 82.0334 36.944 82.6034 36.108C83.0974 35.386 83.5534 34.189 83.9714 32.517C84.0474 32.099 84.1614 31.795 84.3134 31.605C84.5034 31.377 84.7694 31.244 85.1114 31.206L84.9404 30.294L79.5254 31.377L77.1884 31.776C76.0864 32.004 75.2124 32.251 74.5664 32.517C73.9584 32.783 73.4454 33.106 73.0274 33.486C72.3814 34.132 72.0584 34.892 72.0584 35.766C72.0584 36.83 72.4574 37.647 73.2554 38.217C74.0534 38.749 75.0794 39.015 76.3334 39.015ZM98.6605 12.852H107.324V13.536C107.324 14.106 107.248 14.6 107.096 15.018C106.982 15.436 106.754 15.854 106.412 16.272L107.21 16.842C108.312 15.132 109.547 13.935 110.915 13.251C112.321 12.529 114.012 12.168 115.988 12.168H117.185V20.433H115.361C112.929 20.433 111.067 21.041 109.775 22.257C108.901 23.093 108.274 24.195 107.894 25.563C107.514 26.893 107.324 28.641 107.324 30.807V45H98.6605V12.852ZM131.513 45C129.119 45 127.276 44.449 125.984 43.347C124.692 42.207 124.046 40.516 124.046 38.274V19.692H119.486V12.852H124.046V1.509H132.71V12.852H138.581V19.692H132.71V35.481C132.71 36.241 132.862 36.849 133.166 37.305C133.47 37.723 134.078 37.932 134.99 37.932H138.524V45H131.513ZM158.69 45.684C155.422 45.684 152.515 44.981 149.969 43.575C147.461 42.131 145.523 40.155 144.155 37.647C142.787 35.139 142.103 32.308 142.103 29.154C142.103 26.266 142.692 23.53 143.87 20.946C145.086 18.324 146.91 16.215 149.342 14.619C151.812 12.985 154.833 12.168 158.405 12.168C161.331 12.168 164.029 12.776 166.499 13.992C169.007 15.17 171.021 17.032 172.541 19.578C174.061 22.086 174.821 25.24 174.821 29.04V30.75H155.213C152.895 30.75 151.394 30.674 150.71 30.522L150.425 31.377C150.767 31.491 151.014 31.662 151.166 31.89C151.356 32.118 151.508 32.441 151.622 32.859C151.926 33.619 152.23 34.227 152.534 34.683C153.978 37.039 156.163 38.217 159.089 38.217C160.647 38.217 161.996 37.837 163.136 37.077C164.276 36.279 165.093 35.272 165.587 34.056H174.308C173.32 37.476 171.515 40.269 168.893 42.435C166.271 44.601 162.87 45.684 158.69 45.684ZM151.28 25.221C152.344 24.689 153.408 24.423 154.472 24.423H162.908C163.478 24.423 163.991 24.48 164.447 24.594C164.941 24.708 165.511 24.917 166.157 25.221L166.613 24.366C166.309 24.252 166.1 24.138 165.986 24.024C165.91 23.872 165.834 23.644 165.758 23.34C165.72 23.264 165.625 23.055 165.473 22.713C165.359 22.371 165.093 21.972 164.675 21.516C163.307 19.768 161.331 18.894 158.747 18.894C156.163 18.894 154.168 19.768 152.762 21.516C152.344 21.972 152.059 22.371 151.907 22.713C151.793 23.055 151.717 23.264 151.679 23.34C151.603 23.644 151.508 23.872 151.394 24.024C151.318 24.138 151.128 24.252 150.824 24.366L151.28 25.221ZM192.979 45.684C190.243 45.684 187.811 44.981 185.683 43.575C183.555 42.131 181.883 40.155 180.667 37.647C179.489 35.101 178.9 32.194 178.9 28.926C178.9 25.658 179.489 22.77 180.667 20.262C181.883 17.716 183.555 15.74 185.683 14.334C187.811 12.89 190.243 12.168 192.979 12.168C194.917 12.168 196.57 12.529 197.938 13.251C199.344 13.935 200.617 15.132 201.757 16.842L202.555 16.272C202.213 15.854 201.966 15.436 201.814 15.018C201.7 14.6 201.643 14.106 201.643 13.536V1.509H210.307V45H201.643V44.316C201.643 43.708 201.7 43.214 201.814 42.834C201.966 42.416 202.213 41.998 202.555 41.58L201.757 41.01C200.617 42.72 199.344 43.936 197.938 44.658C196.57 45.342 194.917 45.684 192.979 45.684ZM195.202 38.274C197.482 38.274 199.325 37.419 200.731 35.709C202.175 33.961 202.897 31.7 202.897 28.926C202.897 26.152 202.175 23.91 200.731 22.2C199.325 20.452 197.482 19.578 195.202 19.578C192.922 19.578 191.079 20.452 189.673 22.2C188.305 23.91 187.621 26.152 187.621 28.926C187.621 31.7 188.305 33.961 189.673 35.709C191.079 37.419 192.922 38.274 195.202 38.274ZM234.067 45.912C227.835 45.912 223.256 44.411 220.33 41.409C217.442 38.369 215.998 34.227 215.998 28.983V1.509H225.232V28.983C225.232 31.681 225.897 33.809 227.227 35.367C228.557 36.887 230.837 37.647 234.067 37.647C237.259 37.647 239.501 36.887 240.793 35.367C242.123 33.809 242.788 31.681 242.788 28.983V1.509H252.022V28.983C252.022 34.227 250.559 38.369 247.633 41.409C244.745 44.411 240.223 45.912 234.067 45.912ZM275.911 12.168C278.647 12.168 281.079 12.89 283.207 14.334C285.335 15.74 286.988 17.716 288.166 20.262C289.382 22.77 289.99 25.658 289.99 28.926C289.99 32.194 289.382 35.101 288.166 37.647C286.988 40.155 285.335 42.131 283.207 43.575C281.079 44.981 278.647 45.684 275.911 45.684C273.973 45.684 272.301 45.342 270.895 44.658C269.527 43.936 268.273 42.72 267.133 41.01L266.335 41.58C266.677 41.998 266.905 42.416 267.019 42.834C267.171 43.252 267.247 43.746 267.247 44.316V56.343H258.583V12.852H267.247V13.536C267.247 14.144 267.171 14.657 267.019 15.075C266.905 15.455 266.677 15.854 266.335 16.272L267.133 16.842C268.273 15.132 269.527 13.935 270.895 13.251C272.301 12.529 273.973 12.168 275.911 12.168ZM273.688 19.578C271.408 19.578 269.546 20.452 268.102 22.2C266.696 23.91 265.993 26.152 265.993 28.926C265.993 31.7 266.696 33.961 268.102 35.709C269.546 37.419 271.408 38.274 273.688 38.274C275.968 38.274 277.792 37.419 279.16 35.709C280.566 33.961 281.269 31.7 281.269 28.926C281.269 26.152 280.566 23.91 279.16 22.2C277.792 20.452 275.968 19.578 273.688 19.578Z" fill="url(#paint0_linear_1053_1230)"/>
<defs>
<linearGradient id="paint0_linear_1053_1230" x1="-1" y1="23.5" x2="311" y2="23.5" gradientUnits="userSpaceOnUse">
<stop stop-color="#0736C8"/>
<stop offset="1" stop-color="#4131FF"/>
</linearGradient>
</defs>
</svg>
